<svg width="12" height="18" viewBox="0 0 12 18" fill="none" xmlns="http://www.w3.org/2000/svg">
<path d="M0.368531 18V15.768C1.39253 14.92 2.38453 14.08 3.34453 13.248C4.32053 12.416 5.18453 11.592 5.93653 10.776C6.70453 9.96 7.31253 9.168 7.76053 8.4C8.22453 7.616 8.45653 6.856 8.45653 6.12C8.45653 5.432 8.26453 4.824 7.88053 4.296C7.51253 3.768 6.89653 3.504 6.03253 3.504C5.15253 3.504 4.48853 3.792 4.04053 4.368C3.59253 4.944 3.36853 5.64 3.36853 6.456H0.392531C0.424531 5.224 0.696531 4.2 1.20853 3.384C1.72053 2.552 2.40053 1.936 3.24853 1.536C4.09653 1.12 5.04853 0.912 6.10453 0.912C7.81653 0.912 9.14453 1.384 10.0885 2.328C11.0485 3.256 11.5285 4.464 11.5285 5.952C11.5285 6.88 11.3125 7.784 10.8805 8.664C10.4645 9.544 9.91253 10.392 9.22453 11.208C8.53653 12.024 7.79253 12.792 6.99253 13.512C6.19253 14.216 5.41653 14.872 4.66453 15.48H11.9365V18H0.368531Z" fill="black"/>
</svg>
