<svg width="13" height="19" viewBox="0 0 13 19" fill="none" xmlns="http://www.w3.org/2000/svg">
<path d="M6.47956 18.288C5.37556 18.288 4.37556 18.096 3.47956 17.712C2.58356 17.312 1.86356 16.704 1.31956 15.888C0.775563 15.072 0.487563 14.048 0.455563 12.816H3.47956C3.49556 13.632 3.75956 14.32 4.27156 14.88C4.79956 15.424 5.53556 15.696 6.47956 15.696C7.37556 15.696 8.06356 15.448 8.54356 14.952C9.02356 14.456 9.26356 13.832 9.26356 13.08C9.26356 12.2 8.94356 11.536 8.30356 11.088C7.67956 10.624 6.87156 10.392 5.87956 10.392H4.63156V7.872H5.90356C6.71956 7.872 7.39956 7.68 7.94356 7.296C8.48756 6.912 8.75956 6.344 8.75956 5.592C8.75956 4.968 8.55156 4.472 8.13556 4.104C7.73556 3.72 7.17556 3.528 6.45556 3.528C5.67156 3.528 5.05556 3.76 4.60756 4.224C4.17556 4.688 3.93556 5.256 3.88756 5.928H0.887563C0.951563 4.376 1.48756 3.152 2.49556 2.256C3.51956 1.36 4.83956 0.912 6.45556 0.912C7.60756 0.912 8.57556 1.12 9.35956 1.536C10.1596 1.936 10.7596 2.472 11.1596 3.144C11.5756 3.816 11.7836 4.56 11.7836 5.376C11.7836 6.32 11.5196 7.12 10.9916 7.776C10.4796 8.416 9.83956 8.848 9.07156 9.072C10.0156 9.264 10.7836 9.728 11.3756 10.464C11.9676 11.184 12.2636 12.096 12.2636 13.2C12.2636 14.128 12.0396 14.976 11.5916 15.744C11.1436 16.512 10.4876 17.128 9.62356 17.592C8.77556 18.056 7.72756 18.288 6.47956 18.288Z" fill="black"/>
</svg>
