<svg width="13" height="18" viewBox="0 0 13 18" fill="none" xmlns="http://www.w3.org/2000/svg">
<path d="M6.71459 17.288C5.48259 17.288 4.41859 17.072 3.52259 16.64C2.64259 16.208 1.94659 15.616 1.43459 14.864C0.938594 14.096 0.650594 13.232 0.570594 12.272H3.57059C3.71459 12.96 4.06659 13.536 4.62659 14C5.18659 14.448 5.88259 14.672 6.71459 14.672C7.61059 14.672 8.33859 14.344 8.89859 13.688C9.47459 13.032 9.76259 12.216 9.76259 11.24C9.76259 10.232 9.47459 9.432 8.89859 8.84C8.33859 8.248 7.62659 7.952 6.76259 7.952C6.04259 7.952 5.41859 8.128 4.89059 8.48C4.36259 8.832 3.98659 9.272 3.76259 9.8H0.810594L2.25059 0.199999H11.5626V2.888H4.55459L3.78659 6.776C4.13859 6.392 4.61859 6.08 5.22659 5.84C5.83459 5.584 6.51459 5.456 7.26659 5.456C8.46659 5.456 9.46659 5.728 10.2666 6.272C11.0666 6.8 11.6746 7.504 12.0906 8.384C12.5066 9.248 12.7146 10.192 12.7146 11.216C12.7146 12.384 12.4586 13.424 11.9466 14.336C11.4506 15.248 10.7466 15.968 9.83459 16.496C8.93859 17.024 7.89859 17.288 6.71459 17.288Z" fill="black"/>
</svg>
